<?xml version="1.0" encoding="utf-8"?>
<!-- Generator: Adobe Illustrator 23.0.1, SVG Export Plug-In . SVG Version: 6.00 Build 0)  -->
<svg version="1.1" id="Layer_3" xmlns="http://www.w3.org/2000/svg" xmlns:xlink="http://www.w3.org/1999/xlink" x="0px" y="0px"
	 viewBox="0 0 145 145" style="enable-background:new 0 0 145 145;" xml:space="preserve">
<style type="text/css">
	.st0{opacity:0.7;}
	.st1{fill:#FFFFFF;}
	.st2{fill:#FFCA83;}
	.st3{fill:#F29101;}
	.st4{fill:#FFA733;}
	.st5{opacity:0.5;}
	.st6{fill:none;stroke:#FFCA83;stroke-miterlimit:10;}
	.st7{fill:#00AA63;}
	.st8{fill:#007936;}
</style>
<g class="st0">
	<circle class="st1" cx="73" cy="73.2" r="65"/>
	<ellipse class="st1" cx="73" cy="123.2" rx="25" ry="10"/>
</g>
<g>
	<polygon class="st2" points="100.3,89.7 74.4,100.2 60.8,96.6 86.7,86.2 	"/>
	<polygon class="st3" points="60.8,96.6 65.9,120.8 79.5,124.4 74.4,100.2 	"/>
	<polygon class="st4" points="100.3,89.7 105.5,114 79.5,124.4 74.4,100.2 	"/>
	<g class="st5">
		<path class="st1" d="M79.5,124.4c-1-4-2-8-2.9-12c-1-4-1.8-8.1-2.7-12.1l-0.1-0.4l0.4-0.2c2.1-0.9,4.3-1.7,6.5-2.6l6.5-2.5
			l6.5-2.5c2.2-0.8,4.4-1.6,6.6-2.4c-2.1,1-4.3,1.9-6.4,2.8l-6.4,2.7L81,98c-2.2,0.9-4.3,1.8-6.5,2.6l0.3-0.6
			c0.8,4,1.7,8.1,2.5,12.1C78.1,116.2,78.9,120.3,79.5,124.4z"/>
	</g>
</g>
<polyline class="st6" points="27.4,65.7 79.5,93.2 112.1,41.8 "/>
<polyline class="st6" points="39.2,66.5 79.5,93.2 101.3,50.5 "/>
<polyline class="st6" points="57.9,65 79.5,93.2 83.7,58.8 "/>
<path class="st7" d="M114.2,36.6C108.9,16.1,90.3,1,68.2,1C42,1,20.7,22.3,20.7,48.5c0,4.5,0.6,8.9,1.8,13.1
	c8.8,3.2,18.3,4.9,28.1,4.9C76.2,66.5,99.1,54.9,114.2,36.6z"/>
<ellipse transform="matrix(0.9644 -0.2646 0.2646 0.9644 -10.64 19.8339)" class="st7" cx="68.3" cy="49.4" rx="47.4" ry="14.1"/>
<g>
	<ellipse transform="matrix(0.9892 -0.1468 0.1468 0.9892 -5.9834 6.9217)" class="st8" cx="43.9" cy="44" rx="9.2" ry="3.2"/>
</g>
<g>
	<ellipse transform="matrix(0.1644 -0.9864 0.9864 0.1644 -19.2545 64.4958)" class="st8" cx="28.4" cy="43.6" rx="3.2" ry="7.4"/>
</g>
<g>
	<ellipse transform="matrix(0.9352 -0.354 0.354 0.9352 -6.4001 32.447)" class="st8" cx="85.5" cy="33.7" rx="9.4" ry="3.2"/>
</g>
<g>
	<ellipse transform="matrix(0.754 -0.6569 0.6569 0.754 7.8409 72.2865)" class="st8" cx="100.4" cy="25.7" rx="8.1" ry="3.2"/>
</g>
<g>
	<ellipse transform="matrix(0.974 -0.2265 0.2265 0.974 -7.4111 15.7912)" class="st8" cx="65.1" cy="40.2" rx="12.5" ry="3.2"/>
</g>
<g>
	<path class="st8" d="M99.3,12.7c-0.4-0.1-0.8-0.1-1.2-0.2c1.2,4.3-14.4,12.4-34.8,18s-37.9,6.6-39.1,2.3c-0.1-0.2-0.1-0.5,0-0.7
		c-0.3,0.3-0.6,0.5-0.9,0.9c-1,2.8-1.7,5.8-2.1,8.9c0,0.5,0.1,0.8,0.2,1.1c1.4,5,21.6,3.8,45.1-2.6c22-6,39.1-14.6,40.1-19.7
		C104.5,17.6,102,15,99.3,12.7z"/>
</g>
<g>
	<path class="st8" d="M37.7,64.8c-3-11.4-4.1-23.5-2.1-35.3c1-5.9,2.9-11.6,6.1-16.7c1.6-2.6,3.5-4.9,5.9-6.8c2.3-1.9,5.1-3.3,8-4.1
		c3-0.7,6.1-0.8,9-0.1c3,0.6,5.8,1.7,8.4,3.2c5.2,3,9.6,7.2,13.2,11.9C93.5,26.4,98.3,37.5,101,49c-1.6-5.7-3.5-11.3-6.1-16.6
		c-2.5-5.3-5.6-10.4-9.3-15c-3.7-4.6-8-8.7-13.1-11.6c-2.5-1.5-5.3-2.5-8.1-3.1c-2.8-0.6-5.8-0.5-8.6,0.2s-5.4,2-7.7,3.9
		c-2.2,1.8-4.2,4.1-5.7,6.5c-3.1,5-5,10.6-6.1,16.4s-1.4,11.7-1.1,17.6C35.5,53.2,36.4,59.1,37.7,64.8z"/>
</g>
<g>
	<path class="st8" d="M57.8,65.5c-2.8-10.5-5-21.2-6.3-32c-0.7-5.4-1-10.9-1-16.3c0.1-2.7,0.2-5.5,0.8-8.2c0.3-1.4,0.6-2.7,1.2-4
		C53,3.7,54,2.4,55.6,1.9c0.8-0.2,1.6-0.1,2.3,0.2c0.4,0.1,0.7,0.3,1,0.5s0.6,0.4,0.9,0.6c1.1,0.9,2.1,1.9,3,3
		c1.8,2.1,3.2,4.5,4.5,6.9c2.6,4.8,4.9,9.8,6.8,14.9c3.9,10.2,7,20.6,9.5,31.2C82.2,54,80.7,48.7,79,43.6
		c-1.7-5.2-3.5-10.3-5.5-15.3c-2.1-5-4.3-10-6.9-14.7c-1.3-2.3-2.8-4.7-4.5-6.7c-0.8-1-1.8-2-2.8-2.8S57,2.8,55.9,3
		c-1.1,0.3-1.9,1.3-2.5,2.5S52.5,8,52.2,9.3c-0.5,2.6-0.7,5.3-0.8,8c-0.1,5.4,0.3,10.8,0.8,16.2c0.6,5.4,1.4,10.8,2.3,16.1
		C55.5,54.9,56.6,60.2,57.8,65.5z"/>
</g>
<g class="st5">
	<polygon class="st1" points="60.8,96.6 74.5,99.7 74.3,100.6 	"/>
</g>
<ellipse transform="matrix(0.9671 -0.2543 0.2543 0.9671 5.395290e-02 14.8357)" class="st8" cx="57.4" cy="7.2" rx="14.4" ry="5"/>
</svg>
