<?xml version="1.0" encoding="utf-8"?>
<!-- Generator: Adobe Illustrator 21.0.0, SVG Export Plug-In . SVG Version: 6.00 Build 0)  -->
<svg version="1.1" id="Layer_2" xmlns="http://www.w3.org/2000/svg" xmlns:xlink="http://www.w3.org/1999/xlink" x="0px" y="0px"
	 width="145px" height="145px" viewBox="0 0 145 145" style="enable-background:new 0 0 145 145;" xml:space="preserve">
<style type="text/css">
	.st0{fill:#F2F2F2;}
	.st1{fill:#D8D8D8;}
	.st2{fill:#0088B2;}
	.st3{fill:#00B4D2;}
	.st4{fill:#525ECC;}
	.st5{fill:#1D1099;}
	.st6{opacity:0.2;fill:none;stroke:#FFFFFF;stroke-miterlimit:10;}
	.st7{fill:#F29101;}
	.st8{fill:none;stroke:#FFA733;stroke-width:9;stroke-linecap:round;stroke-miterlimit:10;}
	.st9{fill:none;stroke:#0088B2;stroke-linecap:round;stroke-miterlimit:10;}
</style>
<g>
	<circle class="st0" cx="73" cy="73" r="65"/>
	<ellipse class="st1" cx="73" cy="123" rx="25" ry="10"/>
</g>
<ellipse class="st1" cx="73" cy="123" rx="25" ry="10"/>
<g>
	<ellipse class="st2" cx="73" cy="119" rx="27.5" ry="11"/>
</g>
<ellipse class="st3" cx="73" cy="117" rx="27.5" ry="11"/>
<path class="st2" d="M66,109h14c1,5,5,9,10,8c2-0.4,3-2.6,3-4c0-4.4-9-8-20-8s-20,3.6-20,8c0,1.8,1,3,3.1,3.8
	C59.9,118.4,65.1,113.4,66,109z"/>
<path class="st3" d="M118.1,85.5c-15.1,24.1-46.9,31.3-71,16.2C40,97.3,34.3,91.3,30.3,84.5c-9.6-16.1-1-32,9.6-49
	C51.2,17.5,63,4.1,82.8,7.3c6.6,1.1,13.1,3.5,19.1,7.2C126,29.7,133.3,61.5,118.1,85.5z"/>
<g>
	<path class="st4" d="M59,100.7c-5.9,0-11.4-1.5-16.3-4.4C24.5,85.5,21,57.7,34.9,34.5C44.7,18.2,61.1,7.7,76.7,7.7
		c5.9,0,11.4,1.5,16.3,4.4c18.2,10.9,21.7,38.6,7.8,61.8C91.1,90.2,74.7,100.7,59,100.7z"/>
	<g>
		<path class="st3" d="M76.7,8.7c5.6,0,11,1.4,15.8,4.3c17.7,10.6,21.1,37.7,7.4,60.5C90.1,90,73.9,99.7,59,99.7
			c-5.6,0-11-1.4-15.8-4.3C25.5,84.9,22.2,57.8,35.8,35C45.7,18.4,61.8,8.7,76.7,8.7 M76.7,6.7C60.7,6.7,44,17.4,34.1,34
			c-14.2,23.7-10.5,52.1,8.1,63.2c5,3,10.7,4.5,16.8,4.5c16,0,32.8-10.7,42.7-27.3c14.2-23.7,10.5-52.1-8.1-63.2
			C88.5,8.2,82.9,6.7,76.7,6.7L76.7,6.7z"/>
	</g>
</g>
<g>
	<ellipse transform="matrix(0.5129 -0.8585 0.8585 0.5129 -12.7431 86.516)" class="st5" cx="69.9" cy="54.5" rx="44.8" ry="34.9"/>
</g>
<line class="st6" x1="36.5" y1="34.5" x2="87.5" y2="65.5"/>
<path class="st6" d="M47.4,92.1c9.9,5.9,34.9-1.2,47.3-22s9.8-44.7-2.4-53.3c-0.7-0.5-2.4-1.3-3.8-2.1c-1.5-0.8-2.2-2.5-1.7-4.1v0"
	/>
<path class="st7" d="M99.8,72.4c4-6.7,7.2-16.4,7.4-24.8C103,45,92,45,85,50c-7,5-16,18-19,29c-2.9-1-30-6-26.4,7.7
	c2,2.5,4.4,4.6,7.2,6.3C63.4,102.9,87.1,93.6,99.8,72.4z"/>
<path class="st8" d="M43,84c7,8,19.5,12.5,35,4"/>
<path class="st9" d="M74.6,109.8c4.4,0,8.9-0.3,12.6-1"/>
</svg>
