<?xml version="1.0" encoding="utf-8"?>
<!-- Generator: Adobe Illustrator 23.0.1, SVG Export Plug-In . SVG Version: 6.00 Build 0)  -->
<svg version="1.1" id="Layer_1" xmlns="http://www.w3.org/2000/svg" xmlns:xlink="http://www.w3.org/1999/xlink" x="0px" y="0px"
	 viewBox="0 0 145 145" style="enable-background:new 0 0 145 145;" xml:space="preserve">
<style type="text/css">
	.st0{opacity:0.7;}
	.st1{fill:#FFFFFF;}
	.st2{fill:#007936;}
	.st3{fill:#00AA63;}
	.st4{fill:#009963;}
	.st5{fill:none;stroke:#FFFFFF;stroke-width:2;stroke-linecap:round;stroke-miterlimit:10;}
	.st6{fill:#F29101;}
	.st7{fill:#FFA733;}
</style>
<g class="st0">
	<circle class="st1" cx="73" cy="73" r="65"/>
	<ellipse class="st1" cx="73" cy="123" rx="25" ry="10"/>
</g>
<g>
	<g>
		<path class="st2" d="M19,48.6l78.5-20.1l21,53.4l0.9-0.3l23.6,5c2.1,0.8,1.9,7.5-0.3,8.1l-75.3,21.6c-2,0.6-4.1,0.5-6-0.2
			l-23.9-8.8c-2.2-0.8-3.9-2.5-4.8-4.7l-17-43.7C14.3,55.6,15.5,49.6,19,48.6z"/>
	</g>
	<path class="st3" d="M119.3,77.7L35,101.9L16.3,54.7c-1.1-2.8,0.4-6,3.3-6.8l73.2-21c3.2-0.9,6.7,0.7,7.9,3.9L119.3,77.7z"/>
	<path class="st4" d="M142.5,90.8l-72.2,20.8c-3.3,0.9-6.8,0.8-10-0.4L35,101.9l84.3-24.2l23.3,8.6C144.9,87,144.8,90.2,142.5,90.8z
		"/>
</g>
<path class="st2" d="M82.1,108.3L90,106c0.6-0.2,0.6-1.1,0-1.3l-3.3-1.1c-1.7-0.6-1.6-3,0.1-3.5l18.8-5.4c2.3-0.7,4.7-0.7,7.1,0
	l3.7,1.1c3.1,0.9,6.3,0.9,9.4,0l5.5-1.6L82.1,108.3z"/>
<polygon class="st3" points="90,106 93.1,106.9 121.4,98.9 124,96.3 "/>
<g>
	<ellipse class="st2" cx="58" cy="43.2" rx="1.4" ry="1.4"/>
</g>
<g>
	<path class="st2" d="M54,84c0.9,0.4,1.9-0.5,1.5-1.4L42.2,49.3c-0.8-1.9-2.8-2.9-4.8-2.4L16,53.1c0,0.5,0.1,1,0.3,1.6l12.1,30.5
		l15-4.4c1.5-0.5,3.2-0.3,4.6,0.4L54,84z"/>
</g>
<g>
	<path class="st5" d="M68.5,66.3c-2.7-8.8,0.9-17.7,7.9-19.8s14.9,3.2,17.6,12s-0.9,17.7-7.9,19.8"/>
	<ellipse class="st1" cx="84.6" cy="78.4" rx="3" ry="3"/>
	<path class="st1" d="M71.3,72.3c-3.3,1-6.7-0.8-7.7-4.1c-1-3.3,0.8-6.7,4.1-7.7"/>
	<path class="st1" d="M90.9,53.5c3.3-1,6.7,0.8,7.7,4.1s-0.8,6.7-4.1,7.7"/>
</g>
<path class="st6" d="M57.3,68.9L50,65.8c-1.3-0.5-2.7-0.6-4-0.2l-30.7,8.6c-1.9,0.5-3.8-0.4-4.5-2.2L0.6,46.3
	c-0.7-1.7,0.3-3.6,2-4.1l38.7-10.9c2-0.6,4.1,0.5,4.8,2.4l13.3,33C60.1,68.1,58.7,69.5,57.3,68.9z"/>
<path class="st7" d="M59.3,67.1l-9.4-4.2c-0.9-0.4-1.9-0.5-2.8-0.2l-30.2,8.4c-1.9,0.5-3.8-0.4-4.5-2.2L2.2,43.2
	c-0.7-1.7,0.3-3.6,2-4.1l38.7-10.9c2-0.6,4.1,0.5,4.8,2.4L61.5,65C62,66.4,60.7,67.7,59.3,67.1z"/>
<path class="st6" d="M49.9,62.9l9.4,4.2c1.3,0.6,2.7-0.7,2.1-2L50.8,38.4l-29.2,8.5c-2.9,0.8-4.5,4-3.3,6.8l6.2,15.5L47,62.7
	C48,62.4,49,62.5,49.9,62.9z"/>
<g>
	<path class="st1" d="M18,59c-1-3.5,2.9-5.4,2.5-6.8c-0.2-0.7-0.8-0.8-1.3-0.6c-0.9,0.3-1.1,1.4-1.1,1.4L16,52.4
		c0,0,0.3-2.3,2.8-3.1c1.6-0.5,3.5-0.1,4.1,2c0.9,3-2.8,4.7-2.5,6l4.1-1.2l0.6,2l-6.6,2C18.3,59.7,18.1,59.3,18,59z"/>
	<path class="st1" d="M25,54l2-7l2.9-0.8l1.6,5.3l1.1-0.3l0.6,1.9L32,53.5l0.7,2.3l-2.3,0.7l-0.7-2.3l-4.3,1.3L25,54z M29.1,52.2
		l-0.6-2.1c-0.2-0.5-0.2-1.1-0.2-1.1l0,0c0,0,0,0.7-0.2,1.1l-0.8,2.6l0,0L29.1,52.2z"/>
	<path class="st1" d="M35.2,44.1l1.9-0.6l-0.3,11.7l-1.9,0.6L35.2,44.1z"/>
	<path class="st1" d="M42.5,45.6c0.1-0.8,0.4-1.1,0.4-1.1l0,0c0,0-0.1,0.1-0.6,0.2l-3.8,1.1l-0.6-2l6.9-2l0.5,1.6l-1.7,9.2l-2.4,0.7
		L42.5,45.6z"/>
</g>
<g>
	<path class="st7" d="M24.6,69.1C27.7,68,31,67,34.2,66s6.5-2,9.7-2.9l2.4-0.7c0.4-0.1,0.8-0.3,1.3-0.3c0.5-0.1,0.9-0.1,1.4,0
		s0.9,0.3,1.3,0.4l1.1,0.5l2.3,1.1l4.6,2.2l1.1,0.6c0.3,0.2,0.7,0.2,1.1,0.1c0.8-0.2,1.2-1.1,1-2c0.2,0.4,0.2,0.8,0.1,1.3
		c-0.2,0.4-0.5,0.8-0.9,0.9c-0.4,0.2-0.9,0.2-1.4,0l-1.2-0.5l-4.7-1.9l-2.3-1l-1.2-0.5c-0.4-0.2-0.7-0.3-1.1-0.3
		c-0.4-0.1-0.7-0.1-1.1,0c-0.4,0-0.7,0.2-1.2,0.3L44.1,64c-3.2,0.9-6.5,1.8-9.8,2.7C31.1,67.6,27.9,68.4,24.6,69.1z"/>
</g>
</svg>
