<?xml version="1.0" encoding="utf-8"?>
<!-- Generator: Adobe Illustrator 23.0.1, SVG Export Plug-In . SVG Version: 6.00 Build 0)  -->
<svg version="1.1" id="Layer_3" xmlns="http://www.w3.org/2000/svg" xmlns:xlink="http://www.w3.org/1999/xlink" x="0px" y="0px"
	 viewBox="0 0 145 145" style="enable-background:new 0 0 145 145;" xml:space="preserve">
<style type="text/css">
	.st0{opacity:0.7;}
	.st1{fill:#FFFFFF;}
	.st2{fill:#007936;}
	.st3{fill:#F29101;}
	.st4{fill:#FFA733;}
	.st5{opacity:0.3;}
	.st6{fill:#00AA63;}
	.st7{fill:none;stroke:#006836;stroke-linecap:round;stroke-miterlimit:10;}
	.st8{fill:none;stroke:#5C69E5;stroke-linecap:round;stroke-miterlimit:10;}
	.st9{opacity:0.2;fill:none;stroke:#FFFFFF;stroke-miterlimit:10;enable-background:new    ;}
	.st10{fill:#00B4D2;}
	.st11{fill:none;stroke:#FFFFFF;stroke-width:2;stroke-linecap:round;stroke-miterlimit:10;}
</style>
<g class="st0">
	<circle class="st1" cx="73" cy="73" r="65"/>
	<ellipse class="st1" cx="73" cy="123" rx="25" ry="10"/>
</g>
<g>
	<path class="st2" d="M102.2,93.3l-66.6,19c-6.3,1.8-12.6-2.9-12.6-9.5V57c0-5.8,3.8-10.9,9.4-12.5l65.3-18.7
		c5-1.4,13.8,55.1,13.8,55.1C111.6,86.6,107.7,91.7,102.2,93.3z"/>
</g>
<g>
	<path class="st2" d="M97.8,25.7c11.7-2.7,22.2,4,22.2,14.6c0,5.4,0,17.4,0,17.4l-3.1,12L97.8,25.7z"/>
</g>
<path class="st3" d="M105.4,92.9l-65.8,18.8c-5.8,1.6-11.5-2.7-11.5-8.7V61c0-5.3,3.5-10,8.6-11.5l66.9-19.1
	c5.3-1.5,10.5,2.4,10.5,7.9v43.1C114,86.8,110.5,91.4,105.4,92.9z"/>
<path class="st4" d="M110.4,97l-65.8,18.8c-5.8,1.6-11.5-2.7-11.5-8.7v-42c0-5.3,3.5-10,8.6-11.5l66.9-19.1
	c5.3-1.5,10.5,2.4,10.5,7.9v43.1C119,90.9,115.5,95.6,110.4,97z"/>
<g class="st5">
	<path class="st1" d="M33.4,81.7c-0.1-2.1-0.2-4.2-0.3-6.3L33,69.1c0-1.1,0-2.1,0-3.2s0.1-2.2,0.4-3.2c0.5-2.1,1.6-4.1,3.1-5.7
		c1.5-1.6,3.5-2.7,5.6-3.3l6.1-1.8l12.1-3.4c8.1-2.3,16.2-4.6,24.3-6.8c8.1-2.3,16.2-4.5,24.4-6.6c-8,2.5-16.1,4.9-24.2,7.3
		c-8.1,2.4-16.1,4.7-24.2,7.1L48.5,53l-6.1,1.7c-2,0.5-3.8,1.6-5.2,3s-2.4,3.3-2.9,5.2c-0.2,1-0.3,2-0.3,3c0,1.1,0,2.1,0,3.2
		l-0.1,6.3C33.6,77.5,33.5,79.6,33.4,81.7z"/>
</g>
<g class="st5">
	<path class="st1" d="M28.3,77.5c-0.1-2.1-0.2-4.2-0.3-6.3l-0.1-6.3c0-1.1,0-2.1,0-3.2c0-1.1,0.1-2.2,0.4-3.2
		c0.5-2.1,1.6-4.1,3.1-5.7c1.5-1.6,3.5-2.7,5.6-3.3l6.1-1.8l12.1-3.4c8.1-2.3,16.2-4.6,24.3-6.8c8.1-2.3,16.2-4.5,24.4-6.6
		c-8,2.5-16.1,4.9-24.2,7.3s-16.1,4.7-24.2,7.1l-12.1,3.5l-6.1,1.7c-2,0.5-3.8,1.6-5.2,3c-1.4,1.4-2.4,3.3-2.9,5.2
		c-0.2,1-0.3,2-0.3,3c0,1.1,0,2.1,0,3.2l-0.1,6.3C28.4,73.3,28.4,75.4,28.3,77.5z"/>
</g>
<path class="st6" d="M110.6,101.3l-64,18.3c-6.3,1.8-12.6-2.9-12.6-9.5V84.9c0-5.8,3.8-10.9,9.4-12.5L120,50.5v38.3
	C120,94.6,116.2,99.7,110.6,101.3z"/>
<path class="st6" d="M111.3,53c6.3-1.6,8.7-8.5,8.7-12.8c0,3.4,0,8.2,0,10.3S111.3,53,111.3,53z"/>
<g>
	<g>
		<path class="st2" d="M42.6,80.6L33.1,83c-2.3,0.6-4.7,0.3-6.8-0.8l-1.7,0.5L26,79l-2.3-3.9c-2,0.7-2.7,2.3-2.7,3.6V91
			c0,2,1.1,3.8,2.9,4.8l2.9,1.5c3.6,1.8,7.6,2.1,11.6,1.2c1.9-0.4,2.5-0.6,6-1.6c4.2-1.2,7.1-5,7.1-9.3
			C51.5,82.9,47.2,79.5,42.6,80.6z M23.3,82.3c0.4,0.3,0.8,0.4,1,0.6L24,83C23.8,82.9,23.6,82.7,23.3,82.3z"/>
	</g>
</g>
<path class="st7" d="M41,81.5c-4.2,1.1-11.6,3.4-17.4,0.3c-2.3-1.2-2.3-4.6,0.1-5.7"/>
<path class="st8" d="M42.5,81.6"/>
<line class="st9" x1="51.5" y1="87.6" x2="51.5" y2="87.6"/>
<ellipse transform="matrix(0.8926 -0.4508 0.4508 0.8926 -35.4307 29.6426)" class="st10" cx="44.5" cy="89.2" rx="2.5" ry="2.2"/>
<g>
	<line class="st11" x1="93" y1="98" x2="93" y2="95"/>
	<line class="st11" x1="97" y1="97" x2="97" y2="87"/>
	<line class="st11" x1="101" y1="96" x2="101" y2="90"/>
	<line class="st11" x1="105" y1="95" x2="105" y2="85"/>
	<line class="st11" x1="109" y1="94" x2="109" y2="79"/>
</g>
</svg>
