<?xml version="1.0" encoding="utf-8"?>
<!-- Generator: Adobe Illustrator 23.0.1, SVG Export Plug-In . SVG Version: 6.00 Build 0)  -->
<svg version="1.1" id="Layer_3" xmlns="http://www.w3.org/2000/svg" xmlns:xlink="http://www.w3.org/1999/xlink" x="0px" y="0px"
	 viewBox="0 0 130 137.2" style="enable-background:new 0 0 130 137.2;" xml:space="preserve">
<style type="text/css">
	.st0{opacity:0.69;}
	.st1{fill:#FFFFFF;}
	.st2{fill:#FFCA83;}
	.st3{fill:#F29101;}
	.st4{fill:#FFA733;}
	.st5{opacity:0.5;}
	.st6{fill:none;stroke:#FFCA83;stroke-miterlimit:10;}
	.st7{fill:#00AA63;}
	.st8{fill:#007936;}
</style>
<title>supdated</title>
<g class="st0">
	<circle class="st1" cx="65" cy="72.2" r="65"/>
	<ellipse class="st1" cx="65" cy="122.2" rx="25" ry="10"/>
</g>
<polygon class="st2" points="92.3,88.7 66.4,99.2 52.8,95.6 78.7,85.2 "/>
<polygon class="st3" points="52.8,95.6 57.9,119.8 71.5,123.4 66.4,99.2 "/>
<polygon class="st4" points="92.3,88.7 97.5,113 71.5,123.4 66.4,99.2 "/>
<g class="st5">
	<path class="st1" d="M71.5,123.4c-1-4-2-8-2.9-12s-1.8-8.1-2.7-12.1l-0.1-0.4l0.4-0.2c2.1-0.9,4.3-1.7,6.5-2.6l6.5-2.5l6.5-2.5
		l6.6-2.4c-2.1,1-4.3,1.9-6.4,2.8l-6.4,2.7L73,97c-2.2,0.9-4.3,1.8-6.5,2.6l0.3-0.6c0.8,4,1.7,8.1,2.5,12.1S70.9,119.3,71.5,123.4z"
		/>
</g>
<polyline class="st6" points="19.4,64.7 71.5,92.2 104.1,40.8 "/>
<polyline class="st6" points="31.2,65.5 71.5,92.2 93.3,49.5 "/>
<polyline class="st6" points="49.9,64 71.5,92.2 75.7,57.8 "/>
<path class="st7" d="M106.2,35.6C99.7,10.2,73.8-5.2,48.4,1.3S7.6,33.6,14.1,59.1c0.1,0.5,0.3,1,0.4,1.5c9,3.3,18.5,4.9,28.1,4.9
	C67.2,65.6,90.5,54.6,106.2,35.6z"/>
<ellipse transform="matrix(0.9644 -0.2645 0.2645 0.9644 -10.6577 17.6788)" class="st7" cx="60.3" cy="48.4" rx="47.4" ry="14.1"/>
<ellipse transform="matrix(0.9892 -0.1468 0.1468 0.9892 -5.9225 5.7352)" class="st8" cx="35.9" cy="43" rx="9.2" ry="3.2"/>
<ellipse transform="matrix(0.1644 -0.9864 0.9864 0.1644 -24.9533 55.7737)" class="st8" cx="20.4" cy="42.6" rx="3.2" ry="7.4"/>
<ellipse transform="matrix(0.9353 -0.354 0.354 0.9353 -6.5672 29.5478)" class="st8" cx="77.5" cy="32.7" rx="9.4" ry="3.2"/>
<ellipse transform="matrix(0.754 -0.6568 0.6568 0.754 6.5219 66.7876)" class="st8" cx="92.4" cy="24.7" rx="8.1" ry="3.2"/>
<ellipse transform="matrix(0.974 -0.2265 0.2265 0.974 -7.3917 13.9528)" class="st8" cx="57.1" cy="39.2" rx="12.5" ry="3.2"/>
<path class="st8" d="M91.3,11.7c-0.4-0.1-0.8-0.1-1.2-0.2c1.2,4.3-14.4,12.4-34.8,18s-37.9,6.6-39.1,2.3c-0.1-0.2-0.1-0.5,0-0.7
	c-0.3,0.3-0.6,0.6-0.9,0.9c-1,2.9-1.7,5.9-2.1,8.9c0,0.4,0.1,0.7,0.2,1.1c1.4,5,21.6,3.8,45.1-2.6c22-6,39.1-14.6,40.1-19.7
	C96.5,16.7,94.1,14,91.3,11.7z"/>
<path class="st8" d="M29.7,63.8c-3-11.4-4.1-23.5-2.1-35.3c0.9-5.9,3-11.6,6.1-16.7c1.5-2.6,3.5-4.9,5.9-6.8c2.4-1.9,5.1-3.3,8-4.1
	c3-0.7,6-0.8,9-0.1c3,0.6,5.8,1.7,8.4,3.2c5.1,3.1,9.6,7.1,13.2,11.9C85.4,25.4,90.4,36.4,93,48c-1.5-5.7-3.6-11.3-6.1-16.6
	c-2.5-5.3-5.6-10.4-9.3-15c-3.6-4.7-8-8.6-13.1-11.6c-2.5-1.5-5.2-2.5-8.1-3.1C50.6,0.5,44.6,2,40.1,5.8c-2.2,1.8-4.2,4-5.7,6.5
	c-3,5-5.1,10.6-6.1,16.4c-1.1,5.8-1.4,11.7-1.1,17.6C27.5,52.2,28.4,58,29.7,63.8z"/>
<path class="st8" d="M49.8,64.5c-2.8-10.5-5-21.2-6.3-32c-0.7-5.4-1-10.9-1-16.3c0-2.8,0.3-5.5,0.8-8.2c0.2-1.4,0.6-2.7,1.2-4
	c0.5-1.5,1.6-2.6,3.1-3.1c0.8-0.2,1.6-0.1,2.3,0.2c0.4,0.1,0.7,0.3,1,0.5l0.9,0.6c1.1,0.9,2.1,1.9,3,3c1.7,2.1,3.2,4.4,4.5,6.9
	c2.6,4.8,4.9,9.8,6.8,14.9c3.9,10.2,7,20.6,9.5,31.2C74.2,53,72.7,47.7,71,42.6s-3.5-10.3-5.5-15.3c-2-5-4.3-9.9-6.9-14.7
	c-1.3-2.4-2.8-4.6-4.5-6.7c-0.8-1-1.8-2-2.8-2.8c-0.9-0.8-2.2-1.2-3.4-1.1c-1.1,0.4-2.1,1.4-2.5,2.5c-0.5,1.2-1,2.5-1.2,3.8
	c-0.5,2.6-0.7,5.3-0.8,8c0,5.4,0.2,10.8,0.8,16.2c0.6,5.4,1.4,10.8,2.3,16.1S48.6,59.2,49.8,64.5z"/>
<g class="st5">
	<polygon class="st1" points="52.8,95.6 66.5,98.7 66.3,99.6 	"/>
</g>
<ellipse transform="matrix(0.9671 -0.2543 0.2543 0.9671 4.331768e-02 12.7666)" class="st8" cx="49.4" cy="6.2" rx="14.4" ry="5"/>
</svg>
